<?xml version="1.0" encoding="utf-8"?>
<!-- Generator: Adobe Illustrator 22.1.0, SVG Export Plug-In . SVG Version: 6.00 Build 0)  -->
<svg version="1.1" id="Layer_1" xmlns="http://www.w3.org/2000/svg" xmlns:xlink="http://www.w3.org/1999/xlink" x="0px" y="0px"
	 viewBox="0 0 195 71" style="enable-background:new 0 0 195 71;" xml:space="preserve">
<style type="text/css">
	.st0{fill:#FFFFFF;}
</style>
<g id="Forma_1_1_">
	<g>
		<path class="st0" d="M82.9,30.4c0-0.3-0.2-0.6-0.5-0.7s-0.6-0.1-0.9,0.1c-0.9,0.7-2.6,1.2-3.9,1.4c0-0.1,0-0.3,0-0.4
			c0-0.1,0-0.2,0-0.3c-0.3-4-3.3-7-7-7h0c-3.8,0-7,3.2-7,7.1c0,3.1-1,5.5-3,7.1c-4.6,3.7-13.3,2-15.8,1.4c-0.4-0.1-0.9,0-1.2,0.3
			c-0.3,0.3-0.5,0.7-0.4,1.2c0.1,0.7,0.4,1.8,0.8,3.2c0.1,0.4,0.4,0.6,0.8,0.6c0.1,0,0.2,0,0.3,0c0.4-0.1,0.7-0.6,0.5-1.1
			c-0.3-0.9-0.5-1.7-0.6-2.3c3.3,0.7,11.8,2,16.7-1.8c2.4-1.9,3.6-4.7,3.6-8.4c0-3,2.4-5.4,5.3-5.5h0c2.9,0,5.2,2.3,5.4,5.4
			c0,0.1,0,0.2,0,0.3c0.3,3.4,0.2,6.5-0.3,9.4c-0.1,0.5,0.2,0.9,0.7,1c0.5,0.1,0.9-0.2,1-0.7c0.2-1,0.3-2,0.4-3
			c1.1,0.2,2.9,0.6,3.9,1.4c0.2,0.1,0.3,0.2,0.5,0.2c0.1,0,0.2,0,0.3-0.1c0.3-0.1,0.5-0.4,0.5-0.7c0-0.1,0.1-2.6-1.1-4
			C83,33,82.9,30.6,82.9,30.4z M80,35.2c0.6,0.2,0.9,0.9,1.1,1.6c-1.2-0.5-2.5-0.8-3.4-0.9c0-1,0-2,0-3c0.9-0.1,2.2-0.4,3.4-0.9
			c-0.2,0.7-0.5,1.4-1.1,1.6c-0.4,0.1-0.6,0.4-0.6,0.8C79.4,34.8,79.6,35.1,80,35.2z M75.8,43.2c-0.4-0.1-0.9,0.1-1.1,0.6
			c-1,3.2-2.5,5.6-4.6,7.4c0.8-1.6,1.1-3.4,0.6-5.2c-1-3.9-5-6.1-8.8-5.1c-0.8,0.2-2.4,1.3-3.3,2c-2.5,1.8-6.2,2.4-8.2,2.6
			c-0.8,0.1-1.5,0.6-1.9,1.3c-0.4,0.7-0.3,1.6,0.1,2.3c0.2,0.4,0.5,0.8,0.8,1.2c-0.9-1-1.8-2.2-2.5-3.6c-0.2-0.4-0.7-0.6-1.1-0.4
			c-0.4,0.2-0.6,0.7-0.3,1.1c2.1,3.9,6.1,8.6,13.6,8.9v7c0,0.5,0.4,0.8,0.8,0.8c0.5,0,0.8-0.4,0.8-0.8v-7c0.8,0,1.5-0.1,2.2-0.2v7.2
			c0,0.5,0.4,0.8,0.8,0.8s0.8-0.4,0.8-0.8v-7.5c2.5-0.6,4.7-1.6,6.5-3.2c2.4-2,4.1-4.7,5.2-8.2C76.5,43.8,76.3,43.3,75.8,43.2z
			 M67.4,51.9c-1.4,1.2-3.2,1.7-4.1,1.9c-0.1,0-0.2,0.1-0.3,0.1C56,55.7,51.9,51,50,48c-0.2-0.3-0.1-0.5,0-0.6
			c0-0.1,0.2-0.3,0.5-0.4c2.6-0.3,6.4-1,9-2.9c1.2-0.9,2.4-1.6,2.8-1.7c2.9-0.8,6,1,6.8,3.9C69.6,48.4,69,50.5,67.4,51.9z
			 M57.3,25.2c0.1,0,0.1,0,0.2,0c0.2,0,0.4-0.1,0.6-0.3c1.6-1.6,2.8-3.3,3.8-4.9c0.2-0.4,0.1-0.9-0.3-1.2c-0.4-0.2-0.9-0.1-1.1,0.3
			c-0.8,1.4-1.9,2.8-3.2,4.3c-7.9-1.6-10.2-5.1-10.8-7.1C46,15,46,13.5,46.6,12.4c0.4-0.8,1-1.3,1.8-1.6c2.3-0.8,4.1,0.8,4.2,0.8
			c0.2,0.2,0.5,0.3,0.8,0.2s0.5-0.3,0.6-0.6c0-0.1,0.6-2.4,2.9-3.1c2.2-0.7,4.2,1.1,4.9,3.3c0.4,1.4,0.4,3-0.1,4.7
			c-0.1,0.4,0.1,0.9,0.6,1c0.4,0.1,0.9-0.1,1-0.6c0.6-2,0.6-3.9,0.1-5.7C62.9,9.3,62,8,60.7,7.1c-1.3-0.9-2.9-1.1-4.3-0.7
			c-2.1,0.7-3.1,2.2-3.6,3.3c-1-0.6-2.8-1.2-4.9-0.5c-1.2,0.4-2.2,1.2-2.8,2.4c-0.8,1.5-0.9,3.4-0.3,5.2
			C45.6,19.3,48.2,23.5,57.3,25.2z M94.6,15.1c-0.3-1.1-1-1.9-2-2.4c-1.5-0.8-3-0.6-3.9-0.3c-0.3-0.9-1-2.2-2.5-3
			c-2.2-1.1-5,0-6.3,2.7c-0.9,1.8-1.8,5.8,2.4,12c0.2,0.2,0.4,0.4,0.7,0.4h0c7.5-0.2,10.2-3.2,11.1-5.1C94.8,18,95,16.4,94.6,15.1z
			 M92.6,18.6c-0.7,1.4-2.9,3.8-9.2,4.1c-3.5-5.3-2.8-8.5-2.1-9.9c0.8-1.6,2.5-2.7,4.1-1.9c1.7,0.8,1.8,2.6,1.8,2.7
			c0,0.3,0.2,0.6,0.5,0.7c0.3,0.1,0.6,0.1,0.8,0c0,0,0.8-0.5,1.8-0.5c0.5,0,1,0.1,1.5,0.4c0.6,0.3,1,0.8,1.2,1.4
			C93.3,16.5,93.1,17.6,92.6,18.6z M71.1,17.1c0.1,0.1,0.3,0.1,0.4,0.1c0.1,0,0.2,0,0.4-0.1c4.9-2.3,5.7-5.1,5.8-6.5
			c0.1-1-0.2-2-0.7-2.7c-0.6-0.8-1.4-1.3-2.4-1.4c-1.1-0.1-2,0.4-2.5,0.8c-0.5-0.5-1.3-1-2.4-1.1c-1.9-0.1-3.4,1.5-3.6,3.7
			C66,11.4,66.5,14.3,71.1,17.1z M69.6,7.9C70.7,8,71.3,9,71.3,9c0.1,0.3,0.4,0.4,0.7,0.5c0.3,0,0.6-0.1,0.7-0.4
			c0,0,0.6-0.9,1.7-0.9c0,0,0.1,0,0.1,0c0.6,0,0.9,0.4,1.1,0.7c0.3,0.4,0.4,1,0.4,1.7c-0.1,1.8-1.7,3.5-4.4,4.9
			c-2.5-1.7-3.9-3.6-3.8-5.4C67.8,8.9,68.5,7.9,69.6,7.9z M65.4,45.5c0.3-0.3,0.3-0.9,0-1.2c-0.3-0.3-0.9-0.3-1.2,0
			c0,0-3.8,3.6-11.5,2.8c-0.5,0-0.9,0.3-0.9,0.8c0,0.5,0.3,0.9,0.8,0.9c0.8,0.1,1.6,0.1,2.3,0.1C61.8,49,65.2,45.7,65.4,45.5z
			 M66.1,48.2c-0.1,0-5.4,3.4-12.2,1.3c-0.4-0.1-0.9,0.1-1,0.6s0.1,0.9,0.6,1.1c1.8,0.5,3.5,0.8,5,0.8c5,0,8.4-2.1,8.6-2.3
			c0.4-0.3,0.5-0.8,0.3-1.2S66.5,47.9,66.1,48.2z M71.5,31.3c0.5,0,0.8-0.4,0.8-0.8c0-0.5-0.4-0.8-0.8-0.8c-0.5,0-0.8,0.4-0.8,0.8
			C70.7,30.9,71.1,31.3,71.5,31.3z"/>
	</g>
</g>
<g id="Forma_1_2_">
	<g>
		<path class="st0" d="M109.1,34.4c-1.2,1.4-1.2,3.9-1.1,4c0,0.3,0.2,0.6,0.5,0.7c0.1,0.1,0.2,0.1,0.3,0.1c0.2,0,0.4-0.1,0.5-0.2
			c1-0.8,2.8-1.2,3.9-1.4c0.1,1,0.2,2,0.4,3c0.1,0.5,0.5,0.8,1,0.7c0.5-0.1,0.8-0.5,0.7-1c-0.5-2.9-0.6-6-0.3-9.4c0-0.1,0-0.2,0-0.3
			c0.2-3.1,2.5-5.4,5.4-5.4h0c2.9,0,5.3,2.5,5.3,5.5c0,3.7,1.2,6.5,3.6,8.4c4.9,3.9,13.4,2.6,16.7,1.8c-0.1,0.6-0.3,1.4-0.6,2.3
			c-0.1,0.4,0.1,0.9,0.5,1.1c0.1,0,0.2,0,0.3,0c0.4,0,0.7-0.2,0.8-0.6c0.4-1.3,0.7-2.5,0.8-3.2c0.1-0.4-0.1-0.9-0.4-1.2
			c-0.3-0.3-0.8-0.4-1.2-0.3c-2.5,0.6-11.2,2.3-15.8-1.4c-2-1.5-3-3.9-3-7.1c0-3.9-3.2-7.1-7-7.1h0c-3.8,0-6.8,3-7,7
			c0,0.1,0,0.1,0,0.3c0,0.1,0,0.3,0,0.4c-1.3-0.2-3-0.6-3.9-1.4c-0.2-0.2-0.6-0.3-0.9-0.1s-0.5,0.4-0.5,0.7
			C108,30.6,107.9,33,109.1,34.4z M111.5,34.4c0-0.4-0.3-0.7-0.6-0.8c-0.6-0.2-0.9-0.9-1.1-1.6c1.2,0.5,2.5,0.8,3.4,0.9c0,1,0,2,0,3
			c-0.9,0.1-2.2,0.4-3.4,0.9c0.2-0.7,0.5-1.4,1.1-1.6C111.2,35.1,111.5,34.8,111.5,34.4z M114.5,44.3c1.1,3.5,2.8,6.2,5.2,8.2
			c1.8,1.5,4,2.6,6.5,3.2v7.5c0,0.5,0.4,0.8,0.8,0.8c0.5,0,0.8-0.4,0.8-0.8v-7.2c0.7,0.1,1.5,0.2,2.2,0.2v7c0,0.5,0.4,0.8,0.8,0.8
			c0.5,0,0.8-0.4,0.8-0.8v-7c7.6-0.3,11.6-5,13.6-8.9c0.2-0.4,0.1-0.9-0.3-1.1c-0.4-0.2-0.9-0.1-1.1,0.4c-0.7,1.4-1.6,2.6-2.5,3.6
			c0.3-0.4,0.6-0.8,0.8-1.2c0.4-0.7,0.5-1.5,0.1-2.3c-0.4-0.7-1.1-1.2-1.9-1.3c-2-0.2-5.7-0.8-8.2-2.6c-0.9-0.7-2.5-1.8-3.3-2
			c-3.8-1-7.8,1.3-8.8,5.1c-0.5,1.8-0.3,3.7,0.6,5.2c-2.1-1.8-3.6-4.2-4.6-7.4c-0.1-0.4-0.6-0.7-1.1-0.6
			C114.6,43.3,114.4,43.8,114.5,44.3z M121.8,46.3c0.8-3,3.8-4.7,6.8-3.9c0.3,0.1,1.5,0.8,2.8,1.7c2.7,1.9,6.4,2.6,9,2.9
			c0.3,0,0.5,0.3,0.5,0.4c0,0.1,0.1,0.4,0,0.6c-1.9,3-6,7.7-13.1,5.8c-0.1,0-0.2,0-0.3-0.1c-0.9-0.2-2.7-0.7-4.1-1.9
			C121.9,50.5,121.2,48.4,121.8,46.3z M146.1,16.9c0.6-1.8,0.5-3.7-0.3-5.2c-0.6-1.2-1.6-2-2.8-2.4c-2.1-0.7-3.8-0.1-4.9,0.5
			c-0.5-1.1-1.6-2.6-3.6-3.3c-1.4-0.5-3-0.2-4.3,0.7c-1.2,0.8-2.2,2.2-2.7,3.7c-0.6,1.7-0.5,3.6,0.1,5.7c0.1,0.4,0.6,0.7,1,0.6
			c0.4-0.1,0.7-0.6,0.6-1c-0.5-1.7-0.5-3.3-0.1-4.7c0.7-2.2,2.7-4,4.9-3.3c2.3,0.8,2.9,3,2.9,3.1c0.1,0.3,0.3,0.5,0.6,0.6
			s0.6,0,0.8-0.2c0.1-0.1,1.9-1.6,4.2-0.8c0.8,0.3,1.4,0.8,1.8,1.6c0.6,1.1,0.6,2.5,0.2,3.9c-0.6,2-2.9,5.5-10.8,7.1
			c-1.3-1.4-2.4-2.9-3.2-4.3c-0.2-0.4-0.7-0.5-1.2-0.3s-0.5,0.8-0.3,1.2c0.9,1.6,2.2,3.3,3.8,4.9c0.2,0.2,0.4,0.3,0.6,0.3
			c0.1,0,0.1,0,0.2,0C142.7,23.5,145.3,19.3,146.1,16.9z M96.8,19.4c0.9,1.8,3.6,4.9,11.1,5.1h0c0.3,0,0.5-0.1,0.7-0.4
			c4.3-6.3,3.3-10.2,2.4-12c-1.3-2.6-4.1-3.8-6.3-2.7c-1.5,0.8-2.2,2.1-2.5,3c-0.9-0.3-2.4-0.5-3.9,0.3c-1,0.5-1.7,1.3-2,2.4
			C95.9,16.4,96,18,96.8,19.4z M97.9,15.6c0.2-0.6,0.6-1.1,1.2-1.4c0.5-0.3,1-0.4,1.5-0.4c1,0,1.7,0.4,1.8,0.5
			c0.2,0.2,0.6,0.2,0.8,0c0.3-0.1,0.4-0.4,0.5-0.7c0-0.1,0.2-1.9,1.8-2.7c1.5-0.8,3.3,0.4,4.1,1.9c0.7,1.4,1.4,4.6-2.1,9.9
			c-6.3-0.3-8.5-2.7-9.2-4.1C97.7,17.6,97.6,16.5,97.9,15.6z M124.8,9.9c-0.1-2.2-1.7-3.8-3.6-3.7c-1.1,0.1-1.9,0.6-2.4,1.1
			c-0.6-0.4-1.4-0.9-2.5-0.8c-1,0.1-1.8,0.6-2.4,1.4c-0.5,0.8-0.8,1.7-0.7,2.7c0.1,1.5,1,4.2,5.8,6.5c0.1,0.1,0.2,0.1,0.4,0.1
			c0.2,0,0.3,0,0.4-0.1C124.3,14.3,124.9,11.4,124.8,9.9z M123.1,10c0.1,1.8-1.3,3.7-3.8,5.4c-2.7-1.4-4.3-3.1-4.4-4.9
			c0-0.6,0.1-1.2,0.4-1.7c0.2-0.3,0.5-0.6,1.1-0.7c0,0,0.1,0,0.1,0c1.1,0,1.7,0.8,1.7,0.9c0.2,0.2,0.4,0.4,0.7,0.4
			c0.3,0,0.6-0.2,0.7-0.5c0,0,0.6-1,1.7-1.1C122.3,7.9,123,8.9,123.1,10z M136,49c0.7,0,1.5,0,2.3-0.1c0.5,0,0.8-0.5,0.8-0.9
			c0-0.5-0.5-0.8-0.9-0.8c-7.6,0.8-11.4-2.8-11.5-2.8c-0.3-0.3-0.9-0.3-1.2,0c-0.3,0.3-0.3,0.9,0,1.2C125.6,45.7,129.1,49,136,49z
			 M123.6,48.4c-0.3,0.4-0.1,0.9,0.3,1.2c0.2,0.1,3.6,2.3,8.6,2.3c1.5,0,3.2-0.2,5-0.8c0.4-0.1,0.7-0.6,0.6-1.1s-0.6-0.7-1-0.6
			c-6.8,2.1-12.2-1.3-12.2-1.3C124.3,47.9,123.8,48.1,123.6,48.4z M120.2,30.5c0-0.5-0.4-0.8-0.8-0.8c-0.5,0-0.8,0.4-0.8,0.8
			c0,0.5,0.4,0.8,0.8,0.8C119.8,31.3,120.2,30.9,120.2,30.5z"/>
	</g>
</g>
</svg>
