<?xml version="1.0" encoding="utf-8"?>
<!-- Generator: Adobe Illustrator 24.1.2, SVG Export Plug-In . SVG Version: 6.00 Build 0)  -->
<svg version="1.1" id="Layer_1" xmlns="http://www.w3.org/2000/svg" xmlns:xlink="http://www.w3.org/1999/xlink" x="0px" y="0px"
	 viewBox="0 0 184.1 214.8" style="enable-background:new 0 0 184.1 214.8;" xml:space="preserve">
<style type="text/css">
	.st0{fill-rule:evenodd;clip-rule:evenodd;fill:#FFFFFF;}
</style>
<g>
	<path class="st0" d="M105,86.1c5-10.2-3-16.6-15.2-20.9c5,3,11.2,5.7,14,11.1C106.5,81.7,104.6,86,105,86.1z"/>
	<path class="st0" d="M101.7,87.1c-0.5-4-2.1-7.2-5.4-9c-4.1-2-6.8-4.8-7.8-8.2c-0.2,3.6,2.6,6.7,7.2,9.5
		C100.4,82.2,101.6,87.3,101.7,87.1z"/>
	<path class="st0" d="M101.2,85.4c-2.5,0.6-5.5-0.3-7.7-2.4c-2.3-2.2-3.2-5.3-2.6-7.8h0.3c-0.4,2.5,0.6,5.3,2.8,7.5
		c2.1,2,4.8,2.9,7.2,2.6l0.2,0v0.2L101.2,85.4z"/>
	<path class="st0" d="M90.8,71.5c3.4,2.6,9.3,5.6,10.6,7.2c1.7,2,1.2,5.2-0.4,7.9c0.7-3.1,1.3-5.8-0.1-7.4
		C96.4,75.7,93,73.8,90.8,71.5z"/>
	<path class="st0" d="M99.9,82c-0.4,0.9-1.3,1.6-2.3,1.6c-1.4,0-2.5-1.1-2.5-2.5c0-1.1,0.7-2,1.7-2.4L99.9,82z"/>
	<path class="st0" d="M98.6,81.5c-0.2,0.4-0.6,0.7-1,0.7c-0.6,0-1.1-0.5-1.1-1.1c0-0.5,0.3-0.9,0.8-1.1L98.6,81.5z"/>
	<path class="st0" d="M85.5,33.1c-5.3-0.2-5.7,1.4-4.1,2.7c7.4,2.4,15.9,2.9,27.8-1.5c4.6-2.2,6.1-3.3,7-5.1c0.4-3.6-2-4.1-4.6-2.9
		C104.4,30.8,96.4,34.2,85.5,33.1z"/>
	<path class="st0" d="M90.5,42.2c-5.3-0.2-5.7,1.4-4.1,2.7c7.4,2.4,15.9,2.9,27.8-1.5c4.6-2.2,6.1-3.3,7-5.1c0.4-3.6-2-4.1-4.6-2.9
		C109.4,39.8,101.4,43.3,90.5,42.2z"/>
	<path class="st0" d="M95.6,51.5c-5.3-0.2-5.7,1.4-4.1,2.7c7.4,2.4,15.9,2.9,27.8-1.5c4.6-2.2,6.1-3.3,7-5.1c0.4-3.6-2-4.1-4.6-2.9
		C114.4,49.1,106.4,52.6,95.6,51.5z"/>
	<path class="st0" d="M85,14c-2.9,1.9-4.3,1.5-3.6-0.4c1.1-2.2,4.3-4.6,6.9-5.3c2.4-0.6,5.8,1.7,3.3,5.5c-2.7,3.7-5.2,7.4-2.3,10.8
		c3,2.3,5.3,0.8,6.8-1.3c-3.5,0.3-4.5-1.9-3.8-5c2.4-5.4,10.4-3.8,11.2,3.1c0.4,6.4-6.1,11.6-15.8,8.3c-5.4-2.6-6-6.9-2.8-11.7
		c1-1.3,2-2.6,2.9-3.9C88.6,11.8,87,12.4,85,14z"/>
	<path class="st0" d="M111.7,66.3l5.5,0.1v2.6l-5.5-0.2c-0.7,0-1.3-0.6-1.3-1.3C110.4,66.9,111,66.3,111.7,66.3z M113.4,61.6
		l4.1,0.1v2.6l-4.1-0.1c-0.7,0-1.3-0.6-1.3-1.3v0C112.1,62.2,112.7,61.6,113.4,61.6z M120.3,56.6c-0.8-0.9-2.2-0.6-2.6,0.8
		c-0.1,0.8-0.2,1.5-0.3,2.3c-5.9-0.2-8.5,0.7-8.2,2.8c0,0.7,0.3,1.4,0.6,2.1c-2.2,1.3-2.9,2.8-1.1,4.7c1.4,1.2,4,1.8,7.7,1.9
		c-0.3,14.9-5,29.6-15.6,44.1c-15.4,21.9-15.1,34-11.1,44.1c-1-11.1-1.1-21.1,10.6-36c11.6-16.3,21.6-33.1,22-52.8
		C122.2,65,121.8,59.9,120.3,56.6z"/>
	<path class="st0" d="M127.2,61.3c-1.2,1.4-1.7-0.1-0.7-1.6c5.9-6.5,14.5-10.1,22.9-3.9c16.5,15.9-13.9,30.6-26.7,36.6
		c9.5-8.1,22.2-16.3,25.4-23.2C152.5,58.8,134.6,52.4,127.2,61.3z"/>
	<path class="st0" d="M159.7,98.8c3.2,0,5.9,2.6,5.9,5.9c0,3.2-2.6,5.9-5.9,5.9c-3.2,0-5.9-2.6-5.9-5.9
		C153.8,101.4,156.4,98.8,159.7,98.8z"/>
	<path class="st0" d="M149,102.5c-0.4-3.3-1.4-5-3.6-5.3c-3,0.8-4.6,4.4-3,11.5c2.6,8.5,8.3,13,20.8,8.8c2.8-1.2,5.3-3,7.6-5.4
		c0.9-1.7-0.6-4.3-2.6-3.3c-9.4,5.8-15.6,6.6-18.2,1.3C149,107.8,148.9,105.2,149,102.5z"/>
	<path class="st0" d="M70.7,50.7c2.1,0,3.9,1.5,4.3,3.6c1-1.1,1.8-2.3,2.4-3.7c1.8-13.6-8.2-19.8-16.4-15c-9.5,8.4-6.7,19.5,5.2,34
		c9.3,11.6,5.8,21.4,0.4,29.1c3.6-8.6,4.9-17.6-2-25.4C51.2,58.3,45,44.8,53,34.6c8.4-12.7,31.3-5,29.7,12.4
		C82.2,61.8,66.5,62.8,66.4,55C66.4,52.6,68.3,50.7,70.7,50.7z"/>
	<path class="st0" d="M55.3,84.7c5.4-7,4.7-13,0.1-15.6c-8.4-2.9-19.9-0.4-23,19.7C31.7,106.1,43,111.1,53,105.1
		c7.4-6.1,8.6-12.5,7.8-18.9c-4.6-4.5-13.4,7.6-13.7,11c0.5,0.9,1.2,1.6,3.5,0.1c1.1-1.1,2.1-2.1,3.2-3.2c1.2-0.2,1.7,0-0.3,2.2
		c-3.5,5.6-7.5,7.9-12,4.6c-4.2-6.2-4.7-13.6,1.7-23.3c2.2-3.2,5.4-3.3,8.9-2.7c1.3,0.5,2.4,1.7,1.7,7
		C53.2,84.2,52.7,85.9,55.3,84.7z"/>
	<path class="st0" d="M78.3,100.3c2,2.8,4.3,5.1,6.9,6.9c2.3,1.4,2.8,0.3,2.4-2c-1.2-2.6-2.5-5.1-3.7-7.7
		C82.2,99,80.3,99.8,78.3,100.3z"/>
	<path class="st0" d="M78,99c1.8-0.7,3.6-1.4,5.4-2c-0.6-1.7-0.2-3.1,0.6-4.5c-3.4,1.6-6.6,2.8-9.3,3.3C76.4,96.9,77.3,97.9,78,99z"
		/>
	<path class="st0" d="M78.7,105.2c-8.4,9.4-15.2,20.2-10.9,40.9c7.5,25.9,31,33.5,52.3,22.2c11.3-8,20.5-23,10.5-43.1
		c8.2-5.8,14.5-15.3,6.3-25.9c-7.2-5.1-16.6-4.6-20.3,0.1c10-0.2,18.2,1.3,16.2,11c-1.8,6.5-7,8.9-15.6,7.5
		c-4.7-0.3-9.7-0.8-10.5,1.3c10.2,1,22.9,18.6,15.2,36.6c-9.2,18.4-49.4,11.1-46.8-20.2C75.1,124.9,76.6,115,78.7,105.2z"/>
	<path class="st0" d="M134.4,125.1c5.9-7.7,31.9-2.9,34.1,21.2c0.4,20.4-12.6,30.5-35,33.2c-13.7,2.3-25.3,0.9-42.3,3.5
		c-17.3,3.7-12.8,13.4-5.5,23.9c-6-3.6-10.8-9.1-9.3-17.4c1.9-9,16-11.6,32.6-12.8c22.2-0.8,35.4-5.2,45.1-12.4
		c7.8-8.7,4.8-17.4-0.8-26.1C147.2,130.5,140.9,126.6,134.4,125.1z"/>
	<path class="st0" d="M55.1,141.6c11.7-4.8,13.1-16,5-26C51.8,104,23.8,105.4,18,126c-4.7,18.3-0.2,39,30.3,51.2
		c13.1,4,26.4,3.3,39.8-1.5c-42,11.1-68.3-24.4-63.7-44.2c4.5-16.7,17.6-17.4,25.6-15.5C60.6,122.4,65,131.6,55.1,141.6z"/>
</g>
</svg>
